<?xml version="1.0" encoding="UTF-8" standalone="no"?><svg xmlns="http://www.w3.org/2000/svg" xmlns:xlink="http://www.w3.org/1999/xlink" contentScriptType="application/ecmascript" contentStyleType="text/css" height="302px" preserveAspectRatio="none" style="width:556px;height:302px;background:#FFFFFF;" version="1.1" viewBox="0 0 556 302" width="556px" zoomAndPan="magnify"><defs><filter height="300%" id="fdkiy8y60fckk" width="300%" x="-1" y="-1"><feGaussianBlur result="blurOut" stdDeviation="2.0"/><feColorMatrix in="blurOut" result="blurOut2" type="matrix" values="0 0 0 0 0 0 0 0 0 0 0 0 0 0 0 0 0 0 .4 0"/><feOffset dx="4.0" dy="4.0" in="blurOut2" result="blurOut3"/><feBlend in="SourceGraphic" in2="blurOut3" mode="normal"/></filter></defs><g><line style="stroke:#A80036;stroke-width:1.0;stroke-dasharray:5.0,5.0;" x1="52" x2="52" y1="67.4883" y2="234.041"/><line style="stroke:#A80036;stroke-width:1.0;stroke-dasharray:5.0,5.0;" x1="145.5" x2="145.5" y1="67.4883" y2="234.041"/><line style="stroke:#A80036;stroke-width:1.0;stroke-dasharray:5.0,5.0;" x1="261.5" x2="261.5" y1="67.4883" y2="234.041"/><line style="stroke:#A80036;stroke-width:1.0;stroke-dasharray:5.0,5.0;" x1="350.5" x2="350.5" y1="67.4883" y2="234.041"/><line style="stroke:#A80036;stroke-width:1.0;stroke-dasharray:5.0,5.0;" x1="520.5" x2="520.5" y1="67.4883" y2="234.041"/><rect fill="#FEFECE" filter="url(#fdkiy8y60fckk)" height="30.4883" style="stroke:#A80036;stroke-width:1.5;" width="91" x="5" y="32"/><text fill="#000000" font-family="sans-serif" font-size="14" lengthAdjust="spacing" textLength="77" x="12" y="52.5352">ImportTool</text><rect fill="#FEFECE" filter="url(#fdkiy8y60fckk)" height="30.4883" style="stroke:#A80036;stroke-width:1.5;" width="91" x="5" y="233.041"/><text fill="#000000" font-family="sans-serif" font-size="14" lengthAdjust="spacing" textLength="77" x="12" y="253.5762">ImportTool</text><text fill="#000000" font-family="sans-serif" font-size="14" lengthAdjust="spacing" textLength="30" x="127.5" y="64.5352">NPM</text><ellipse cx="145.5" cy="35" fill="#FEFECE" filter="url(#fdkiy8y60fckk)" rx="12" ry="12" style="stroke:#A80036;stroke-width:2.0;"/><line style="stroke:#A80036;stroke-width:2.0;" x1="133.5" x2="157.5" y1="49" y2="49"/><text fill="#000000" font-family="sans-serif" font-size="14" lengthAdjust="spacing" textLength="30" x="127.5" y="246.5762">NPM</text><ellipse cx="145.5" cy="265.5293" fill="#FEFECE" filter="url(#fdkiy8y60fckk)" rx="12" ry="12" style="stroke:#A80036;stroke-width:2.0;"/><line style="stroke:#A80036;stroke-width:2.0;" x1="133.5" x2="157.5" y1="279.5293" y2="279.5293"/><text fill="#000000" font-family="sans-serif" font-size="14" lengthAdjust="spacing" textLength="36" x="240.5" y="64.5352">Code</text><ellipse cx="261.5" cy="35" fill="#FEFECE" filter="url(#fdkiy8y60fckk)" rx="12" ry="12" style="stroke:#A80036;stroke-width:2.0;"/><line style="stroke:#A80036;stroke-width:2.0;" x1="249.5" x2="273.5" y1="49" y2="49"/><text fill="#000000" font-family="sans-serif" font-size="14" lengthAdjust="spacing" textLength="36" x="240.5" y="246.5762">Code</text><ellipse cx="261.5" cy="265.5293" fill="#FEFECE" filter="url(#fdkiy8y60fckk)" rx="12" ry="12" style="stroke:#A80036;stroke-width:2.0;"/><line style="stroke:#A80036;stroke-width:2.0;" x1="249.5" x2="273.5" y1="279.5293" y2="279.5293"/><rect fill="#FEFECE" filter="url(#fdkiy8y60fckk)" height="30.4883" style="stroke:#A80036;stroke-width:1.5;" width="113" x="292.5" y="32"/><text fill="#000000" font-family="sans-serif" font-size="14" lengthAdjust="spacing" textLength="99" x="299.5" y="52.5352">upgradeData()</text><rect fill="#FEFECE" filter="url(#fdkiy8y60fckk)" height="30.4883" style="stroke:#A80036;stroke-width:1.5;" width="113" x="292.5" y="233.041"/><text fill="#000000" font-family="sans-serif" font-size="14" lengthAdjust="spacing" textLength="99" x="299.5" y="253.5762">upgradeData()</text><text fill="#000000" font-family="sans-serif" font-size="14" lengthAdjust="spacing" textLength="63" x="486.5" y="64.5352">Database</text><path d="M503,15 C503,5 521,5 521,5 C521,5 539,5 539,15 L539,41 C539,51 521,51 521,51 C521,51 503,51 503,41 L503,15 " fill="#FEFECE" filter="url(#fdkiy8y60fckk)" style="stroke:#000000;stroke-width:1.5;"/><path d="M503,15 C503,25 521,25 521,25 C521,25 539,25 539,15 " fill="none" style="stroke:#000000;stroke-width:1.5;"/><text fill="#000000" font-family="sans-serif" font-size="14" lengthAdjust="spacing" textLength="63" x="486.5" y="246.5762">Database</text><path d="M503,259.5293 C503,249.5293 521,249.5293 521,249.5293 C521,249.5293 539,249.5293 539,259.5293 L539,285.5293 C539,295.5293 521,295.5293 521,295.5293 C521,295.5293 503,295.5293 503,285.5293 L503,259.5293 " fill="#FEFECE" filter="url(#fdkiy8y60fckk)" style="stroke:#000000;stroke-width:1.5;"/><path d="M503,259.5293 C503,269.5293 521,269.5293 521,269.5293 C521,269.5293 539,269.5293 539,259.5293 " fill="none" style="stroke:#000000;stroke-width:1.5;"/><polygon fill="#A80036" points="133.5,94.7988,143.5,98.7988,133.5,102.7988,137.5,98.7988" style="stroke:#A80036;stroke-width:1.0;"/><line style="stroke:#A80036;stroke-width:1.0;" x1="52.5" x2="139.5" y1="98.7988" y2="98.7988"/><text fill="#000000" font-family="sans-serif" font-size="13" lengthAdjust="spacing" textLength="69" x="59.5" y="94.0566">Publish v.X</text><polygon fill="#A80036" points="156.5,124.1094,146.5,128.1094,156.5,132.1094,152.5,128.1094" style="stroke:#A80036;stroke-width:1.0;"/><line style="stroke:#A80036;stroke-width:1.0;" x1="150.5" x2="260.5" y1="128.1094" y2="128.1094"/><text fill="#000000" font-family="sans-serif" font-size="13" lengthAdjust="spacing" textLength="92" x="162.5" y="123.3672">Upgrade to v.X</text><polygon fill="#A80036" points="339,153.4199,349,157.4199,339,161.4199,343,157.4199" style="stroke:#A80036;stroke-width:1.0;"/><line style="stroke:#A80036;stroke-width:1.0;" x1="261.5" x2="345" y1="157.4199" y2="157.4199"/><text fill="#000000" font-family="sans-serif" font-size="13" lengthAdjust="spacing" textLength="24" x="268.5" y="152.6777">Call</text><polygon fill="#A80036" points="509,182.7305,519,186.7305,509,190.7305,513,186.7305" style="stroke:#A80036;stroke-width:1.0;"/><line style="stroke:#A80036;stroke-width:1.0;" x1="351" x2="515" y1="186.7305" y2="186.7305"/><text fill="#000000" font-family="sans-serif" font-size="13" lengthAdjust="spacing" textLength="146" x="358" y="181.9883">Map data to new model</text><polygon fill="#A80036" points="362,212.041,352,216.041,362,220.041,358,216.041" style="stroke:#A80036;stroke-width:1.0;"/><line style="stroke:#A80036;stroke-width:1.0;" x1="356" x2="520" y1="216.041" y2="216.041"/><text fill="#000000" font-family="sans-serif" font-size="13" lengthAdjust="spacing" textLength="60" x="368" y="211.2988">Response</text><!--MD5=[134b308e84582f203b3db7d392af2ff1]
@startuml
participant      ImportTool as plugin
entity       NPM       as npm
entity    Code    as code
participant     "upgradeData()"     as upgrade
database    Database    as db
plugin -> npm : Publish v.X 
code -> npm : Upgrade to v.X
code -> upgrade : Call
upgrade -> db : Map data to new model
upgrade <- db : Response
@enduml

PlantUML version 1.2022.0(Tue Jan 11 17:16:42 CET 2022)
(GPL source distribution)
Java Runtime: OpenJDK Runtime Environment
JVM: OpenJDK 64-Bit Server VM
Default Encoding: UTF-8
Language: nb
Country: NO
--></g></svg>